<svg width="1080" height="1920" viewBox="0 0 1080 1920" fill="none" xmlns="http://www.w3.org/2000/svg">
<rect width="1080" height="1920" fill="#FBD63B"/>
<path d="M137.307 408.467L10.1117 38.5025C5.64763 25.5182 15.2948 12 29.0251 12H547.918C557.34 12 565.484 18.5765 567.469 27.7875L676.102 531.984C679.253 546.61 665.818 559.39 651.368 555.514L151.038 421.281C144.616 419.558 139.469 414.755 137.307 408.467Z" stroke="#E2F4FE" stroke-width="10"/>
<path d="M802.951 896.95L606.58 36.4497C603.722 23.9299 613.237 12 626.078 12H1050.5C1061.55 12 1070.5 20.9543 1070.5 32V892.5C1070.5 903.546 1061.55 912.5 1050.5 912.5H822.45C813.119 912.5 805.027 906.047 802.951 896.95Z" stroke="#E2F4FE" stroke-width="10"/>
<path d="M679.138 602.916L37.4626 420.729C24.6935 417.104 12 426.695 12 439.969V1023.04C12 1031.18 16.9328 1038.5 24.474 1041.57L487.947 1229.81C495.018 1232.68 503.107 1231.28 508.799 1226.19L781.275 982.742C786.928 977.691 789.24 969.879 787.245 962.565L692.971 616.893C691.127 610.133 685.879 604.83 679.138 602.916Z" stroke="#E2F4FE" stroke-width="10"/>
<path d="M883.853 957.92L536.309 1260.68C533.809 1262.86 531.89 1265.62 530.724 1268.73L500.74 1348.54C498.402 1354.77 499.31 1361.75 503.163 1367.17L883.52 1902.09C887.272 1907.37 893.345 1910.5 899.82 1910.5H984H1050.5C1061.55 1910.5 1070.5 1901.55 1070.5 1890.5V1797V1472V973C1070.5 961.954 1061.55 953 1050.5 953H896.99C892.16 953 887.494 954.747 883.853 957.92Z" stroke="#E2F4FE" stroke-width="10"/>
<path d="M453.624 1246.97L39.5478 1078.23C26.3936 1072.87 12 1082.54 12 1096.75V1848.32C12 1867.8 37.0202 1875.78 48.304 1859.9L462.38 1277.08C469.848 1266.57 465.564 1251.84 453.624 1246.97Z" stroke="#E2F4FE" stroke-width="10"/>
<path d="M441.147 1397.95L98.5157 1878.9C89.0834 1892.14 98.5486 1910.5 114.805 1910.5H797.372C813.594 1910.5 823.068 1892.2 813.704 1878.96L473.768 1398.02C465.817 1386.77 449.14 1386.74 441.147 1397.95Z" stroke="#E2F4FE" stroke-width="10"/>
</svg>
